<?xml version="1.0" encoding="UTF-8" standalone="no"?>
<svg width="319px" height="75px" viewBox="0 0 319 75" version="1.1" xmlns="http://www.w3.org/2000/svg" xmlns:xlink="http://www.w3.org/1999/xlink">
    <!-- Generator: Sketch 41 (35326) - http://www.bohemiancoding.com/sketch -->
    <title>logo</title>
    <desc>Created with Sketch.</desc>
    <defs></defs>
    <g id="Page-1" stroke="none" stroke-width="1" fill="none" fill-rule="evenodd">
        <g id="logo">
            <g id="Group-Copy" transform="translate(4.000000, 8.000000)">
                <g id="Group-Copy-2" transform="translate(173.000000, 12.000000)">
                    <circle id="Oval" fill="#D44C18" cx="23.5" cy="23.5" r="23.5"></circle>
                    <ellipse id="Oval" fill="#F5794A" cx="23.5" cy="23.5" rx="15.8904762" ry="15.8904762"></ellipse>
                    <path d="M2.11881857,33.3181096 C4.41807625,38.2783363 8.39645427,42.3017044 13.3242406,44.6585019 C18.5612677,39.7552936 23.8881797,34.4288142 23.8881797,34.4288142 C23.8881797,34.4288142 30.4415843,25.1303324 30.4415843,21.285498 C30.4415843,17.4406636 27.3247302,14.3238095 23.4798958,14.3238095 C20.8185548,14.3238095 18.5060049,15.8171617 17.3344954,18.0116168 C16.9509118,18.7301403 7.22289285,28.0042995 2.11881857,33.3181096 Z" id="Combined-Shape" fill="#B23B0D"></path>
                    <path d="M8.0870755,27.3490919 C9.50098928,32.9484941 13.8870943,37.3650673 19.4690538,38.822475 C22.0716604,36.2888799 23.9318772,34.4288142 23.9318772,34.4288142 C23.9318772,34.4288142 30.4852817,25.1303324 30.4852817,21.285498 C30.4852817,17.4406636 27.3684276,14.3238095 23.5235932,14.3238095 C20.8622522,14.3238095 18.5497023,15.8171617 17.3781928,18.0116168 C17.1185488,18.4979784 12.5774676,22.9043646 8.08707254,27.3490948 Z" id="Combined-Shape" fill="#D34C19"></path>
                    <path d="M23.9318772,34.4288142 C23.9318772,34.4288142 30.4852817,25.1303324 30.4852817,21.285498 C30.4852817,17.4406636 27.3684276,14.3238095 23.5235932,14.3238095 C19.6787589,14.3238095 16.5619048,17.4406636 16.5619048,21.285498 C16.5619048,25.1303324 23.9318772,34.4288142 23.9318772,34.4288142 Z" id="Oval-2" fill="#FFFFFF"></path>
                    <ellipse id="Oval" fill="#D34C19" cx="23.5" cy="21.1126984" rx="3.20793651" ry="3.20793651"></ellipse>
                </g>
                <path d="M20.155,15.805 L20.155,21.17 L11.8175,21.17 L11.8175,55.6075 L5.1475,55.6075 L5.1475,21.17 L0,21.17 L0,15.805 L5.1475,15.805 L5.1475,12.47 C5.1475,8.11997825 6.3074884,4.95417657 8.6275,2.9725 C10.9475116,0.990823425 14.5966418,0 19.575,0 L19.575,5.365 C16.6749855,5.365 14.657089,5.90874456 13.52125,6.99625 C12.385411,8.08375544 11.8175,9.90832052 11.8175,12.47 L11.8175,15.805 L20.155,15.805 Z M34.2925,15.805 L34.2925,22.5475 C36.6608452,17.6174753 40.6966382,15.1525 46.4,15.1525 L46.4,22.04 L44.66,22.04 C41.2766497,22.04 38.7029255,22.9220745 36.93875,24.68625 C35.1745745,26.4504255 34.2925,29.5074782 34.2925,33.8575 L34.2925,55.6075 L27.695,55.6075 L27.695,15.805 L34.2925,15.805 Z M71.05,56.26 C65.3466381,56.26 60.7066845,54.3750188 57.13,50.605 C53.5533154,46.8349811 51.765,41.8566976 51.765,35.67 C51.765,29.4833024 53.5774819,24.5171021 57.2025,20.77125 C60.8275181,17.0253979 65.5278878,15.1525 71.30375,15.1525 C77.0796122,15.1525 81.7195658,16.9287322 85.22375,20.48125 C88.7279342,24.0337678 90.48,28.5649724 90.48,34.075 C90.48,35.4766737 90.3833343,36.7816606 90.19,37.99 L58.5075,37.99 C58.7008343,41.9533531 59.9454052,45.0829052 62.24125,47.37875 C64.5370948,49.6745948 67.4733154,50.8225 71.05,50.8225 C73.7566802,50.8225 76.0404074,50.2183394 77.90125,49.01 C79.7620926,47.8016606 81.1274956,46.2066766 81.9975,44.225 L89.1025,44.225 C87.845827,47.7050174 85.682932,50.580822 82.61375,52.8525 C79.544568,55.124178 75.6900232,56.26 71.05,56.26 Z M79.9675,24.03375 C77.5991548,21.7379052 74.6629342,20.59 71.15875,20.59 C67.6545658,20.59 64.7425116,21.7137388 62.4225,23.96125 C60.1024884,26.2087612 58.8216679,29.2899804 58.58,33.205 L83.5925,33.205 C83.5441664,29.3866476 82.3358452,26.3295948 79.9675,24.03375 Z M105.27,15.805 L105.27,22.2575 C107.97668,17.5208096 112.30247,15.1525 118.2475,15.1525 C122.645855,15.1525 126.319152,16.6145687 129.2675,19.53875 C132.215848,22.4629313 133.69,26.6316396 133.69,32.045 L133.69,55.6075 L127.165,55.6075 L127.165,33.1325 C127.165,29.1208133 126.198343,26.0758437 124.265,23.9975 C122.331657,21.9191563 119.661267,20.88 116.25375,20.88 C112.846233,20.88 110.16376,21.9191563 108.20625,23.9975 C106.24874,26.0758437 105.27,29.1208133 105.27,33.1325 L105.27,55.6075 L98.6725,55.6075 L98.6725,15.805 L105.27,15.805 Z M168.49,15.805 L168.49,21.17 L149.2775,50.2425 L168.49,50.2425 L168.49,55.6075 L141.81,55.6075 L141.81,50.2425 L161.0225,21.17 L141.81,21.17 L141.81,15.805 L168.49,15.805 Z M233.1425,15.805 L233.1425,22.2575 C235.84918,17.5208096 240.17497,15.1525 246.12,15.1525 C250.518355,15.1525 254.191652,16.6145687 257.14,19.53875 C260.088348,22.4629313 261.5625,26.6316396 261.5625,32.045 L261.5625,55.6075 L255.0375,55.6075 L255.0375,33.1325 C255.0375,29.1208133 254.070843,26.0758437 252.1375,23.9975 C250.204157,21.9191563 247.533767,20.88 244.12625,20.88 C240.718733,20.88 238.03626,21.9191563 236.07875,23.9975 C234.12124,26.0758437 233.1425,29.1208133 233.1425,33.1325 L233.1425,55.6075 L226.545,55.6075 L226.545,15.805 L233.1425,15.805 Z M288.75,56.26 C283.046638,56.26 278.406685,54.3750188 274.83,50.605 C271.253315,46.8349811 269.465,41.8566976 269.465,35.67 C269.465,29.4833024 271.277482,24.5171021 274.9025,20.77125 C278.527518,17.0253979 283.227888,15.1525 289.00375,15.1525 C294.779612,15.1525 299.419566,16.9287322 302.92375,20.48125 C306.427934,24.0337678 308.18,28.5649724 308.18,34.075 C308.18,35.4766737 308.083334,36.7816606 307.89,37.99 L276.2075,37.99 C276.400834,41.9533531 277.645405,45.0829052 279.94125,47.37875 C282.237095,49.6745948 285.173315,50.8225 288.75,50.8225 C291.45668,50.8225 293.740407,50.2183394 295.60125,49.01 C297.462093,47.8016606 298.827496,46.2066766 299.6975,44.225 L306.8025,44.225 C305.545827,47.7050174 303.382932,50.580822 300.31375,52.8525 C297.244568,55.124178 293.390023,56.26 288.75,56.26 Z M297.6675,24.03375 C295.299155,21.7379052 292.362934,20.59 288.85875,20.59 C285.354566,20.59 282.442512,21.7137388 280.1225,23.96125 C277.802488,26.2087612 276.521668,29.2899804 276.28,33.205 L301.2925,33.205 C301.244166,29.3866476 300.035845,26.3295948 297.6675,24.03375 Z" id="frenz-ne" fill="#115B88"></path>
            </g>
        </g>
    </g>
</svg>