<?xml version="1.0" encoding="UTF-8" standalone="no"?>
<svg width="47px" height="47px" viewBox="0 0 47 47" version="1.1" xmlns="http://www.w3.org/2000/svg" xmlns:xlink="http://www.w3.org/1999/xlink">
    <!-- Generator: Sketch 41 (35326) - http://www.bohemiancoding.com/sketch -->
    <title>Group Copy 2</title>
    <desc>Created with Sketch.</desc>
    <defs></defs>
    <g id="Page-1" stroke="none" stroke-width="1" fill="none" fill-rule="evenodd">
        <g id="Group-Copy-2">
            <circle id="Oval" fill="#D44C18" cx="23.5" cy="23.5" r="23.5"></circle>
            <ellipse id="Oval" fill="#F5794A" cx="23.5" cy="23.5" rx="15.8904762" ry="15.8904762"></ellipse>
            <path d="M2.11881857,33.3181096 C4.41807625,38.2783363 8.39645427,42.3017044 13.3242406,44.6585019 C18.5612677,39.7552936 23.8881797,34.4288142 23.8881797,34.4288142 C23.8881797,34.4288142 30.4415843,25.1303324 30.4415843,21.285498 C30.4415843,17.4406636 27.3247302,14.3238095 23.4798958,14.3238095 C20.8185548,14.3238095 18.5060049,15.8171617 17.3344954,18.0116168 C16.9509118,18.7301403 7.22289285,28.0042995 2.11881857,33.3181096 Z" id="Combined-Shape" fill="#B23B0D"></path>
            <path d="M8.0870755,27.3490919 C9.50098928,32.9484941 13.8870943,37.3650673 19.4690538,38.822475 C22.0716604,36.2888799 23.9318772,34.4288142 23.9318772,34.4288142 C23.9318772,34.4288142 30.4852817,25.1303324 30.4852817,21.285498 C30.4852817,17.4406636 27.3684276,14.3238095 23.5235932,14.3238095 C20.8622522,14.3238095 18.5497023,15.8171617 17.3781928,18.0116168 C17.1185488,18.4979784 12.5774676,22.9043646 8.08707254,27.3490948 Z" id="Combined-Shape" fill="#D34C19"></path>
            <path d="M23.9318772,34.4288142 C23.9318772,34.4288142 30.4852817,25.1303324 30.4852817,21.285498 C30.4852817,17.4406636 27.3684276,14.3238095 23.5235932,14.3238095 C19.6787589,14.3238095 16.5619048,17.4406636 16.5619048,21.285498 C16.5619048,25.1303324 23.9318772,34.4288142 23.9318772,34.4288142 Z" id="Oval-2" fill="#FFFFFF"></path>
            <ellipse id="Oval" fill="#D34C19" cx="23.5" cy="21.1126984" rx="3.20793651" ry="3.20793651"></ellipse>
        </g>
    </g>
</svg>